<?xml version="1.0" standalone="no"?>
<!DOCTYPE svg PUBLIC "-//W3C//DTD SVG 20010904//EN"
 "http://www.w3.org/TR/2001/REC-SVG-20010904/DTD/svg10.dtd">
<svg version="1.0" xmlns="http://www.w3.org/2000/svg"
 width="1961.000000pt" height="1464.000000pt" viewBox="0 0 1961.000000 1464.000000"
 preserveAspectRatio="xMidYMid meet">

<g id="Monoj" transform="translate(0.000000,1464.000000) scale(0.100000,-0.100000)"
fill="#fff" stroke="none">
<path d="M7141 13358 c0 -9 -4 -25 -7 -35 -5 -17 -5 -17 6 0 6 10 9 25 7 35
-4 15 -5 15 -6 0z"/>
<path d="M7901 13355 c0 -11 4 -29 9 -40 8 -18 9 -18 9 5 0 14 -4 32 -9 40 -8
12 -10 12 -9 -5z"/>
<path d="M7122 13280 c0 -14 2 -19 5 -12 2 6 2 18 0 25 -3 6 -5 1 -5 -13z"/>
<path d="M7831 13274 c0 -11 3 -14 6 -6 3 7 2 16 -1 19 -3 4 -6 -2 -5 -13z"/>
<path d="M7927 13240 c3 -25 7 -47 9 -49 8 -9 2 55 -6 74 -6 13 -7 5 -3 -25z"/>
<path d="M7106 13208 c-3 -13 -5 -32 -5 -43 1 -11 5 -2 10 19 10 42 6 62 -5
24z"/>
<path d="M7946 13135 c5 -35 16 -100 28 -160 2 -11 4 -6 5 12 1 31 -10 87 -29
158 -8 25 -8 24 -4 -10z"/>
<path d="M7086 13098 c-3 -13 -5 -34 -5 -48 1 -15 5 -7 10 19 9 47 6 68 -5 29z"/>
<path d="M7067 12990 c-4 -14 -6 -36 -6 -50 1 -18 4 -14 10 14 10 44 6 75 -4
36z"/>
<path d="M7161 12994 c0 -11 3 -14 6 -6 3 7 2 16 -1 19 -3 4 -6 -2 -5 -13z"/>
<path d="M7987 12905 c3 -27 7 -52 9 -54 8 -9 2 65 -6 84 -6 13 -7 2 -3 -30z"/>
<path d="M7046 12868 c-17 -113 -15 -107 -49 -111 l-32 -4 31 -1 c41 -2 50 11
57 86 7 65 2 86 -7 30z"/>
<path d="M8000 12809 c0 -44 19 -62 57 -56 27 4 27 4 -4 6 -29 1 -33 4 -33 29
0 15 -5 34 -10 42 -7 11 -10 6 -10 -21z"/>
<path d="M6913 12743 c9 -2 23 -2 30 0 6 3 -1 5 -18 5 -16 0 -22 -2 -12 -5z"/>
<path d="M8103 12743 c9 -2 25 -2 35 0 9 3 1 5 -18 5 -19 0 -27 -2 -17 -5z"/>
<path d="M6848 12733 c6 -2 18 -2 25 0 6 3 1 5 -13 5 -14 0 -19 -2 -12 -5z"/>
<path d="M8178 12733 c7 -3 16 -2 19 1 4 3 -2 6 -13 5 -11 0 -14 -3 -6 -6z"/>
<path d="M6748 12723 c7 -3 16 -2 19 1 4 3 -2 6 -13 5 -11 0 -14 -3 -6 -6z"/>
<path d="M8278 12723 c6 -2 18 -2 25 0 6 3 1 5 -13 5 -14 0 -19 -2 -12 -5z"/>
<path d="M6698 12713 c7 -3 16 -2 19 1 4 3 -2 6 -13 5 -11 0 -14 -3 -6 -6z"/>
<path d="M8338 12713 c7 -3 16 -2 19 1 4 3 -2 6 -13 5 -11 0 -14 -3 -6 -6z"/>
<path d="M6608 12703 c6 -2 18 -2 25 0 6 3 1 5 -13 5 -14 0 -19 -2 -12 -5z"/>
<path d="M8428 12703 c7 -3 16 -2 19 1 4 3 -2 6 -13 5 -11 0 -14 -3 -6 -6z"/>
<path d="M6498 12683 c7 -3 16 -2 19 1 4 3 -2 6 -13 5 -11 0 -14 -3 -6 -6z"/>
<path d="M8538 12683 c7 -3 16 -2 19 1 4 3 -2 6 -13 5 -11 0 -14 -3 -6 -6z"/>
<path d="M6458 12673 c7 -3 16 -2 19 1 4 3 -2 6 -13 5 -11 0 -14 -3 -6 -6z"/>
<path d="M6388 12663 c7 -3 16 -2 19 1 4 3 -2 6 -13 5 -11 0 -14 -3 -6 -6z"/>
<path d="M8648 12663 c7 -3 16 -2 19 1 4 3 -2 6 -13 5 -11 0 -14 -3 -6 -6z"/>
<path d="M9000 12580 c8 -5 20 -10 25 -10 6 0 3 5 -5 10 -8 5 -19 10 -25 10
-5 0 -3 -5 5 -10z"/>
<path d="M5820 12520 c-8 -5 -10 -10 -5 -10 6 0 17 5 25 10 8 5 11 10 5 10 -5
0 -17 -5 -25 -10z"/>
<path d="M9210 12520 c8 -5 20 -10 25 -10 6 0 3 5 -5 10 -8 5 -19 10 -25 10
-5 0 -3 -5 5 -10z"/>
<path d="M5760 12500 c-8 -5 -10 -10 -5 -10 6 0 17 5 25 10 8 5 11 10 5 10 -5
0 -17 -5 -25 -10z"/>
<path d="M5700 12480 c-8 -5 -10 -10 -5 -10 6 0 17 5 25 10 8 5 11 10 5 10 -5
0 -17 -5 -25 -10z"/>
<path d="M9390 12460 c8 -5 20 -10 25 -10 6 0 3 5 -5 10 -8 5 -19 10 -25 10
-5 0 -3 -5 5 -10z"/>
<path d="M5580 12440 c-8 -5 -10 -10 -5 -10 6 0 17 5 25 10 8 5 11 10 5 10 -5
0 -17 -5 -25 -10z"/>
<path d="M9450 12440 c8 -5 20 -10 25 -10 6 0 3 5 -5 10 -8 5 -19 10 -25 10
-5 0 -3 -5 5 -10z"/>
<path d="M5470 12400 c-8 -5 -10 -10 -5 -10 6 0 17 5 25 10 8 5 11 10 5 10 -5
0 -17 -5 -25 -10z"/>
<path d="M9550 12406 c0 -2 7 -7 16 -10 8 -3 12 -2 9 4 -6 10 -25 14 -25 6z"/>
<path d="M5420 12380 c-8 -5 -10 -10 -5 -10 6 0 17 5 25 10 8 5 11 10 5 10 -5
0 -17 -5 -25 -10z"/>
<path d="M9610 12380 c8 -5 20 -10 25 -10 6 0 3 5 -5 10 -8 5 -19 10 -25 10
-5 0 -3 -5 5 -10z"/>
<path d="M10889 12363 l-24 -28 28 24 c15 14 27 26 27 28 0 8 -8 1 -31 -24z"/>
<path d="M10950 12386 c0 -2 8 -10 18 -17 15 -13 16 -12 3 4 -13 16 -21 21
-21 13z"/>
<path d="M5370 12360 c-8 -5 -10 -10 -5 -10 6 0 17 5 25 10 8 5 11 10 5 10 -5
0 -17 -5 -25 -10z"/>
<path d="M9650 12366 c0 -2 7 -7 16 -10 8 -3 12 -2 9 4 -6 10 -25 14 -25 6z"/>
<path d="M5325 12340 c-3 -6 1 -7 9 -4 18 7 21 14 7 14 -6 0 -13 -4 -16 -10z"/>
<path d="M9700 12346 c0 -2 7 -7 16 -10 8 -3 12 -2 9 4 -6 10 -25 14 -25 6z"/>
<path d="M5275 12320 c-3 -6 1 -7 9 -4 18 7 21 14 7 14 -6 0 -13 -4 -16 -10z"/>
<path d="M9750 12326 c0 -2 7 -7 16 -10 8 -3 12 -2 9 4 -6 10 -25 14 -25 6z"/>
<path d="M5230 12300 c-9 -6 -10 -10 -3 -10 6 0 15 5 18 10 8 12 4 12 -15 0z"/>
<path d="M9807 12299 c7 -7 15 -10 18 -7 3 3 -2 9 -12 12 -14 6 -15 5 -6 -5z"/>
<path d="M5185 12280 c-3 -6 1 -7 9 -4 18 7 21 14 7 14 -6 0 -13 -4 -16 -10z"/>
<path d="M9840 12286 c0 -2 7 -7 16 -10 8 -3 12 -2 9 4 -6 10 -25 14 -25 6z"/>
<path d="M11090 12286 c0 -2 8 -10 18 -17 15 -13 16 -12 3 4 -13 16 -21 21
-21 13z"/>
<path d="M5140 12260 c-9 -6 -10 -10 -3 -10 6 0 15 5 18 10 8 12 4 12 -15 0z"/>
<path d="M9897 12259 c7 -7 15 -10 18 -7 3 3 -2 9 -12 12 -14 6 -15 5 -6 -5z"/>
<path d="M11130 12256 c0 -2 8 -10 18 -17 15 -13 16 -12 3 4 -13 16 -21 21
-21 13z"/>
<path d="M5095 12240 c-3 -6 1 -7 9 -4 18 7 21 14 7 14 -6 0 -13 -4 -16 -10z"/>
<path d="M9930 12246 c0 -2 7 -7 16 -10 8 -3 12 -2 9 4 -6 10 -25 14 -25 6z"/>
<path d="M5055 12220 c-3 -6 1 -7 9 -4 18 7 21 14 7 14 -6 0 -13 -4 -16 -10z"/>
<path d="M9970 12226 c0 -2 7 -7 16 -10 8 -3 12 -2 9 4 -6 10 -25 14 -25 6z"/>
<path d="M5010 12200 c-8 -5 -10 -10 -5 -10 6 0 17 5 25 10 8 5 11 10 5 10 -5
0 -17 -5 -25 -10z"/>
<path d="M10010 12206 c0 -2 7 -7 16 -10 8 -3 12 -2 9 4 -6 10 -25 14 -25 6z"/>
<path d="M11200 12207 c0 -3 17 -17 37 -33 20 -15 33 -23 29 -16 -8 13 -66 56
-66 49z"/>
<path d="M4970 12180 c-9 -6 -10 -10 -3 -10 6 0 15 5 18 10 8 12 4 12 -15 0z"/>
<path d="M10067 12179 c7 -7 15 -10 18 -7 3 3 -2 9 -12 12 -14 6 -15 5 -6 -5z"/>
<path d="M4930 12160 c-9 -6 -10 -10 -3 -10 6 0 15 5 18 10 8 12 4 12 -15 0z"/>
<path d="M4878 12134 c-38 -20 -36 -28 2 -9 17 9 30 18 30 20 0 7 -1 6 -32
-11z"/>
<path d="M10170 12126 c0 -2 7 -7 16 -10 8 -3 12 -2 9 4 -6 10 -25 14 -25 6z"/>
<path d="M11310 12126 c0 -2 14 -14 30 -26 17 -12 30 -19 30 -16 0 2 -13 14
-30 26 -16 12 -30 19 -30 16z"/>
<path d="M4815 12100 c-3 -6 1 -7 9 -4 18 7 21 14 7 14 -6 0 -13 -4 -16 -10z"/>
<path d="M10210 12106 c0 -2 7 -7 16 -10 8 -3 12 -2 9 4 -6 10 -25 14 -25 6z"/>
<path d="M4780 12080 c-9 -6 -10 -10 -3 -10 6 0 15 5 18 10 8 12 4 12 -15 0z"/>
<path d="M4705 12040 c-3 -6 1 -7 9 -4 18 7 21 14 7 14 -6 0 -13 -4 -16 -10z"/>
<path d="M10320 12046 c0 -2 7 -7 16 -10 8 -3 12 -2 9 4 -6 10 -25 14 -25 6z"/>
<path d="M4635 12000 c-3 -6 1 -7 9 -4 18 7 21 14 7 14 -6 0 -13 -4 -16 -10z"/>
<path d="M6560 12003 c-1101 -58 -2089 -411 -2945 -1053 -461 -346 -794 -718
-1121 -1252 -39 -65 -75 -114 -79 -110 -5 4 -5 2 -1 -5 8 -15 -48 -116 -59
-105 -4 4 -5 2 -2 -4 4 -7 -18 -61 -48 -120 -31 -60 -79 -161 -107 -224 -28
-63 -58 -121 -67 -128 -9 -7 -15 -18 -13 -23 1 -6 -4 -20 -13 -32 -18 -26 -19
-47 -2 -47 6 1 51 80 99 178 123 250 174 339 312 547 101 151 121 178 226 295
247 276 503 518 745 706 122 95 417 296 495 337 19 11 46 26 60 35 24 15 82
46 210 112 201 103 528 240 630 264 8 2 43 13 77 25 35 12 77 23 95 25 18 3
40 7 49 11 10 3 20 1 25 -6 5 -9 2 -10 -9 -6 -10 3 -17 3 -17 -2 0 -8 -184
-103 -196 -100 -4 0 -10 -3 -13 -8 -3 -4 -33 -21 -66 -37 -85 -41 -374 -208
-475 -274 -227 -147 -471 -321 -545 -389 -12 -10 -50 -43 -85 -73 -118 -99
-258 -233 -361 -345 -40 -44 3 -5 96 87 253 248 439 401 715 585 918 614 2038
882 3125 748 537 -67 1032 -215 1504 -451 992 -495 1732 -1269 2177 -2279 26
-60 51 -112 54 -115 3 -3 12 -21 20 -40 7 -19 17 -39 22 -45 5 -5 2 10 -8 35
-9 25 -21 49 -26 54 -4 6 -8 16 -8 23 0 14 -36 93 -132 293 -132 273 -184 375
-226 444 -23 37 -42 70 -42 73 0 3 -14 29 -31 56 -17 28 -32 56 -33 62 -1 6
-13 28 -26 50 -35 57 -34 72 4 36 35 -34 56 -42 36 -13 -21 29 140 -139 196
-205 29 -34 63 -74 77 -90 82 -94 127 -155 220 -298 57 -88 116 -182 132 -210
15 -27 50 -87 77 -132 54 -91 74 -163 44 -163 -13 0 -6 -14 26 -54 24 -30 82
-103 129 -162 218 -277 280 -353 290 -360 7 -4 -2 13 -18 37 -50 73 -123 218
-117 233 9 22 32 28 124 32 47 1 137 6 200 10 223 14 239 13 300 -19 30 -16
93 -48 140 -72 74 -39 177 -115 155 -115 -5 0 1 -10 12 -22 19 -21 36 -66 64
-168 18 -70 37 -218 43 -335 27 -564 27 -570 14 -620 -10 -36 -19 -51 -34 -55
-20 -5 -18 -10 30 -73 l51 -69 3 61 c3 57 4 60 22 49 11 -7 23 -9 27 -4 11 10
20 1230 10 1280 -21 101 -108 216 -205 269 -30 16 -84 32 -147 42 -55 9 -103
19 -106 23 -4 4 -5 22 -2 40 l5 32 494 0 494 0 0 -40 c0 -22 -2 -40 -5 -40 -3
0 -49 -7 -101 -15 -137 -22 -216 -66 -274 -150 -66 -96 -62 -20 -60 -1217 l1
-1087 -36 -7 c-83 -15 -39 -65 -872 1001 -425 545 -784 1000 -798 1012 -35 30
-69 38 -105 23 -40 -16 -53 -60 -40 -129 6 -33 10 -310 10 -713 0 -554 2 -664
15 -693 8 -20 19 -34 26 -33 13 3 21 -18 39 -107 13 -59 50 -137 71 -151 6 -3
4 4 -5 17 -37 58 -46 142 -46 470 0 417 16 585 63 653 18 27 27 32 52 29 16
-2 35 -9 42 -15 7 -6 13 -8 13 -4 0 9 137 -140 251 -273 57 -68 130 -153 161
-189 32 -37 104 -123 160 -192 56 -69 111 -134 121 -145 46 -50 303 -394 394
-528 127 -187 208 -283 258 -307 28 -14 52 -19 63 -14 9 4 26 9 37 11 35 6
105 46 137 77 17 17 40 51 52 76 20 44 21 61 27 660 11 983 27 1318 75 1505
29 113 60 148 206 234 84 50 111 104 112 229 1 61 2 64 36 82 19 10 75 36 123
56 49 20 101 50 116 65 16 15 40 31 55 35 31 7 31 9 10 80 -16 55 -30 77 -18
27 6 -23 5 -25 -12 -17 -11 5 -466 11 -1068 14 l-1049 5 -111 220 c-62 121
-140 267 -175 325 -731 1205 -1912 2048 -3306 2360 -448 100 -980 146 -1415
123z m-1405 -563 c3 -5 2 -10 -4 -10 -5 0 -13 5 -16 10 -3 6 -2 10 4 10 5 0
13 -4 16 -10z"/>
<path d="M10390 12006 c0 -2 7 -7 16 -10 8 -3 12 -2 9 4 -6 10 -25 14 -25 6z"/>
<path d="M10500 11990 c-8 -5 -12 -12 -9 -15 4 -3 12 1 19 10 14 17 11 19 -10
5z"/>
<path d="M11500 11980 c0 -6 7 -13 15 -16 26 -10 16 -20 -34 -33 -27 -7 -56
-20 -64 -29 -17 -19 -195 -383 -207 -424 -12 -40 -2 -65 31 -77 16 -5 29 -14
29 -19 0 -5 17 -21 38 -34 20 -14 75 -61 122 -104 l85 -78 -79 82 -79 82 6 63
c5 58 97 374 131 452 55 124 54 115 26 133 -13 7 -20 8 -20 2z"/>
<path d="M4544 11944 c-18 -14 -18 -15 4 -4 12 6 22 13 22 15 0 8 -5 6 -26
-11z"/>
<path d="M4352 11825 c-28 -20 -52 -38 -52 -40 0 -3 25 11 55 31 48 32 62 44
52 44 -1 0 -26 -16 -55 -35z"/>
<path d="M4239 11743 c-13 -16 -12 -17 4 -4 9 7 17 15 17 17 0 8 -8 3 -21 -13z"/>
<path d="M4155 11684 l-30 -26 33 22 c17 12 32 23 32 26 0 7 -4 5 -35 -22z"/>
<path d="M4040 11599 l-35 -30 38 26 c33 24 43 35 34 35 -1 0 -18 -14 -37 -31z"/>
<path d="M3974 11548 l-19 -23 23 19 c12 11 22 21 22 23 0 8 -8 2 -26 -19z"/>
<path d="M3929 11513 c-13 -16 -12 -17 4 -4 16 13 21 21 13 21 -2 0 -10 -8
-17 -17z"/>
<path d="M3879 11473 c-13 -16 -12 -17 4 -4 16 13 21 21 13 21 -2 0 -10 -8
-17 -17z"/>
<path d="M3819 11423 c-13 -16 -12 -17 4 -4 16 13 21 21 13 21 -2 0 -10 -8
-17 -17z"/>
<path d="M7020 11039 c-1284 -94 -2418 -723 -3150 -1749 -355 -497 -596 -1110
-674 -1713 -22 -164 -31 -472 -18 -584 19 -166 45 -315 52 -303 4 7 13 -26 19
-72 38 -267 74 -444 141 -678 12 -41 25 -89 29 -106 5 -17 13 -39 19 -50 11
-18 11 -18 12 3 0 12 -5 25 -10 28 -5 3 -10 15 -10 26 0 10 -4 27 -9 37 -13
26 -31 86 -31 105 0 10 -4 25 -9 35 -12 22 -37 150 -57 287 -24 175 -30 608
-10 785 21 188 52 376 78 470 11 41 26 100 33 130 22 88 70 228 108 318 20 46
44 107 53 135 27 81 174 374 210 417 7 8 14 22 16 30 2 8 20 41 40 72 21 31
38 60 38 64 0 3 18 33 40 65 22 33 37 59 33 59 -3 0 3 10 14 23 11 12 65 80
119 152 133 177 190 244 303 355 165 163 417 380 441 380 6 0 52 31 102 68 95
70 212 144 283 179 22 10 87 44 145 75 207 110 517 227 911 347 155 47 470
100 719 121 255 22 591 26 739 10 55 -6 134 -13 175 -15 42 -2 79 -6 83 -8 5
-3 37 -8 72 -11 34 -4 113 -18 174 -32 62 -14 129 -27 150 -30 21 -3 91 -20
155 -39 64 -18 120 -31 124 -29 4 3 8 0 8 -6 0 -6 4 -9 9 -6 11 7 167 -44 254
-83 37 -16 67 -28 67 -26 0 4 34 -8 204 -71 21 -8 65 -28 98 -44 32 -16 58
-27 58 -24 0 5 5 3 118 -55 34 -18 62 -29 62 -26 0 4 12 -2 28 -12 68 -45 159
-93 185 -98 9 -2 32 -14 50 -27 31 -22 53 -36 108 -64 14 -8 34 -23 44 -34 10
-11 22 -20 27 -20 5 0 69 -46 141 -102 140 -108 386 -347 504 -488 38 -47 111
-127 162 -178 50 -51 91 -96 91 -101 0 -5 18 -39 40 -75 22 -36 40 -70 40 -75
0 -5 6 -13 13 -19 31 -26 13 37 -44 150 -33 65 -57 123 -54 129 4 5 1 8 -7 7
-7 -2 -12 5 -12 14 1 10 -2 16 -6 13 -9 -6 -26 34 -21 50 1 5 -1 7 -4 3 -4 -4
-38 41 -75 101 -356 567 -763 956 -1345 1281 -708 397 -1577 589 -2395 529z"/>
<path d="M11960 10676 c0 -2 8 -10 18 -17 15 -13 16 -12 3 4 -13 16 -21 21
-21 13z"/>
<path d="M3024 10608 l-19 -23 23 19 c12 11 22 21 22 23 0 8 -8 2 -26 -19z"/>
<path d="M12000 10626 c0 -2 8 -10 18 -17 15 -13 16 -12 3 4 -13 16 -21 21
-21 13z"/>
<path d="M12060 10550 c17 -22 34 -40 37 -40 2 0 -10 18 -27 40 -17 22 -34 40
-37 40 -2 0 10 -18 27 -40z"/>
<path d="M2959 10523 c-13 -16 -12 -17 4 -4 9 7 17 15 17 17 0 8 -8 3 -21 -13z"/>
<path d="M2929 10483 c-13 -16 -12 -17 4 -4 9 7 17 15 17 17 0 8 -8 3 -21 -13z"/>
<path d="M12130 10458 c156 -208 384 -579 520 -845 35 -68 64 -123 66 -123 5
0 -27 82 -37 95 -4 6 -30 53 -57 105 -28 52 -60 115 -73 140 -13 25 -26 47
-29 50 -3 3 -11 16 -18 29 -8 13 -22 39 -32 57 -18 32 -44 73 -138 219 -57 88
-221 315 -228 315 -3 0 9 -19 26 -42z"/>
<path d="M2890 10430 c-12 -16 -19 -30 -16 -30 2 0 14 14 26 30 12 17 19 30
16 30 -2 0 -14 -13 -26 -30z"/>
<path d="M2848 10373 c-26 -30 -194 -286 -259 -395 -140 -233 -291 -534 -383
-762 -37 -94 -44 -132 -8 -48 11 26 43 96 71 156 28 59 51 110 51 112 0 3 37
80 83 172 123 246 276 507 413 705 52 74 64 97 32 60z"/>
<path d="M3265 10096 c-6 -8 -30 -37 -53 -65 -24 -28 -42 -51 -40 -51 3 0 30
29 62 65 31 36 54 65 49 65 -4 0 -13 -6 -18 -14z"/>
<path d="M3139 9943 c-111 -121 -356 -486 -476 -708 -65 -120 -193 -386 -193
-400 0 -3 -8 -24 -19 -48 -53 -119 -143 -376 -138 -391 3 -6 8 3 12 19 9 34
149 389 190 480 149 336 349 672 577 973 42 56 76 102 75 102 -2 0 -15 -12
-28 -27z"/>
<path d="M13550 9458 c0 -9 5 -20 10 -23 13 -8 13 5 0 25 -8 13 -10 13 -10 -2z"/>
<path d="M12768 9453 c7 -3 16 -2 19 1 4 3 -2 6 -13 5 -11 0 -14 -3 -6 -6z"/>
<path d="M13590 9335 c0 -5 5 -17 10 -25 5 -8 10 -10 10 -5 0 6 -5 17 -10 25
-5 8 -10 11 -10 5z"/>
<path d="M13610 9265 c0 -5 5 -17 10 -25 5 -8 10 -10 10 -5 0 6 -5 17 -10 25
-5 8 -10 11 -10 5z"/>
<path d="M13651 9135 c1 -19 18 -51 18 -35 0 8 -4 22 -9 30 -5 8 -9 11 -9 5z"/>
<path d="M2156 9095 c-9 -26 -7 -32 5 -12 6 10 9 21 6 23 -2 3 -7 -2 -11 -11z"/>
<path d="M13670 9065 c0 -5 5 -17 10 -25 5 -8 10 -10 10 -5 0 6 -5 17 -10 25
-5 8 -10 11 -10 5z"/>
<path d="M10995 8730 c3 -5 8 -10 11 -10 2 0 4 5 4 10 0 6 -5 10 -11 10 -5 0
-7 -4 -4 -10z"/>
<path d="M11013 8695 c0 -8 4 -15 9 -15 4 0 8 4 8 9 0 6 -4 12 -8 15 -5 3 -9
-1 -9 -9z"/>
<path d="M14775 8624 c-38 -8 -107 -33 -153 -55 -219 -107 -377 -386 -421
-744 -29 -235 0 -814 39 -790 11 7 17 -13 25 -71 20 -165 59 -325 102 -421 19
-46 27 -41 8 4 -55 131 -92 490 -81 788 22 588 139 938 362 1081 212 136 521
99 701 -83 108 -110 160 -243 209 -528 65 -382 39 -1039 -50 -1249 -9 -22 -15
-41 -12 -43 5 -6 44 88 56 138 34 132 44 188 67 344 9 66 19 112 21 103 5 -25
18 -22 26 5 3 12 13 99 22 192 19 201 14 497 -11 645 -52 311 -191 529 -403
631 -130 63 -349 86 -507 53z"/>
<path d="M4050 8568 c0 -51 23 -94 61 -113 16 -9 68 -20 115 -26 47 -5 99 -16
115 -25 38 -19 67 -67 73 -119 18 -145 28 -959 18 -1425 -7 -344 -11 -411 -25
-445 -12 -29 -13 -35 -3 -21 8 10 20 39 26 65 19 84 39 146 39 126 1 -18 2
-18 19 -2 16 16 17 78 24 885 3 477 9 889 13 915 9 62 -9 127 -44 161 -35 34
-94 45 -231 46 -63 1 -134 5 -157 9 l-43 8 0 -39z"/>
<path d="M7240 8590 c-181 -7 -205 -15 -238 -80 -19 -37 -22 -54 -17 -95 4
-27 10 -500 13 -1050 4 -550 11 -1006 15 -1012 5 -7 14 -13 22 -13 8 0 17 -15
21 -36 6 -32 47 -84 66 -84 4 0 1 15 -6 33 -12 30 -21 463 -39 1982 -2 122 -1
132 22 164 29 41 71 59 154 68 34 3 73 11 87 18 14 7 41 15 62 19 41 7 47 17
41 64 -4 25 -10 32 -27 30 -11 -1 -91 -4 -176 -8z"/>
<path d="M10474 8565 c-7 -37 7 -65 32 -65 7 0 30 -11 50 -25 20 -14 43 -25
50 -25 24 0 125 -49 164 -80 53 -42 78 -99 84 -195 14 -215 21 -573 21 -1105
0 -576 0 -586 -22 -645 -13 -37 -16 -52 -7 -40 16 21 44 108 44 135 0 30 22
80 35 80 7 0 17 8 21 18 5 9 12 386 15 837 3 451 10 837 14 858 12 62 -2 105
-53 159 -84 90 -141 110 -349 122 l-92 6 -7 -35z"/>
<path d="M17390 8555 c0 -43 1 -44 38 -50 20 -3 46 -11 57 -17 11 -6 57 -15
103 -19 98 -10 144 -29 175 -73 l22 -31 -3 -530 c-6 -834 -19 -1339 -36 -1410
-13 -51 -13 -57 -1 -41 18 24 64 191 66 239 0 12 3 16 6 10 8 -22 20 -15 34
20 11 25 15 221 19 922 6 860 5 891 -13 933 -32 72 -43 75 -349 86 l-118 4 0
-43z"/>
<path d="M18550 8590 c-63 -4 -127 -12 -141 -18 -30 -12 -67 -55 -75 -88 -3
-13 -7 -423 -7 -911 l-2 -888 -29 -85 c-97 -291 -286 -456 -593 -517 -127 -25
-423 -25 -513 0 -169 48 -284 131 -380 278 -59 89 -70 112 -124 259 -20 55
-36 85 -46 85 -8 0 -18 5 -22 10 -11 14 -10 -95 2 -200 18 -160 71 -296 158
-404 119 -147 234 -189 585 -211 281 -18 364 -35 452 -92 28 -17 52 -33 55
-33 3 -1 18 -7 33 -13 90 -38 227 53 326 216 52 86 130 277 159 387 44 170 45
191 38 944 -3 394 -9 779 -12 856 -4 90 -2 156 5 182 16 58 60 97 134 118 34
9 67 20 72 24 6 3 28 11 50 16 36 9 40 14 43 44 4 35 -10 52 -38 49 -8 0 -67
-4 -130 -8z"/>
<path d="M4618 8550 c-22 -13 -42 -76 -32 -98 5 -9 11 -432 14 -939 4 -735 8
-925 18 -935 10 -10 14 -10 21 0 9 14 31 -49 31 -89 0 -27 33 -103 48 -113 6
-3 3 15 -6 42 -13 38 -16 111 -20 377 -5 402 12 758 42 890 2 11 5 25 5 31 1
7 8 15 17 18 11 4 22 -9 41 -52 60 -134 196 -526 237 -682 24 -90 243 -768
301 -930 27 -74 90 -190 104 -190 4 0 18 -10 31 -22 24 -22 130 -40 130 -22 0
5 13 15 29 22 35 15 94 98 121 169 17 45 80 268 110 388 100 404 344 1128 472
1401 11 23 28 44 40 47 11 3 17 3 14 0 -3 -4 -1 -12 5 -19 22 -27 32 -307 33
-929 1 -595 0 -642 -17 -672 -21 -39 -9 -42 31 -8 20 17 33 39 37 63 4 25 13
41 28 47 13 6 24 23 29 45 4 19 7 503 8 1075 l2 1040 -22 17 c-41 33 -89 19
-116 -35 -10 -17 -142 -399 -295 -847 -153 -448 -331 -970 -397 -1160 l-118
-345 -31 -3 c-30 -3 -31 -2 -61 90 -188 570 -754 2253 -766 2276 -28 54 -77
75 -118 52z"/>
<path d="M2295 8360 c-4 -12 -5 -24 -2 -27 3 -2 8 5 12 17 4 12 5 24 2 27 -3
2 -8 -5 -12 -17z"/>
<path d="M2276 8295 c-3 -9 -6 -22 -5 -28 0 -7 5 -1 10 12 5 13 8 26 5 28 -2
2 -6 -3 -10 -12z"/>
<path d="M2256 8224 c-4 -14 -5 -29 -2 -31 3 -3 8 7 12 21 3 15 4 29 1 32 -2
3 -8 -7 -11 -22z"/>
<path d="M2236 8144 c-4 -14 -5 -29 -2 -31 3 -3 8 7 12 21 3 15 4 29 1 32 -2
3 -8 -7 -11 -22z"/>
<path d="M8729 8105 c-30 -16 -8 31 -241 -518 -208 -490 -212 -505 -140 -492
30 5 35 4 25 -6 -22 -23 -14 -29 37 -29 47 0 50 1 40 19 -17 32 -12 57 34 169
114 275 221 462 265 462 10 0 25 -10 33 -22 26 -43 146 -303 181 -393 63 -162
64 -170 27 -206 l-28 -29 114 0 c69 0 114 4 114 10 0 6 -4 10 -10 10 -5 0 -10
4 -10 9 0 5 15 8 33 7 61 -2 53 24 -144 495 -100 238 -189 450 -199 470 -28
54 -80 72 -131 44z"/>
<path d="M2215 8060 c-4 -17 -5 -34 -2 -36 3 -3 8 9 12 26 4 17 5 34 2 36 -3
3 -8 -9 -12 -26z"/>
<path d="M2201 8006 c-1 -5 -14 -81 -30 -170 -16 -89 -34 -206 -41 -261 -6
-55 -15 -136 -20 -180 -48 -408 -34 -959 36 -1400 31 -195 53 -287 99 -412 25
-66 36 -109 34 -138 -2 -33 6 -60 40 -126 45 -89 66 -188 54 -260 -5 -35 -4
-37 28 -42 45 -6 49 -3 49 45 0 30 3 39 14 35 34 -13 44 15 48 144 l5 127 -33
26 c-42 33 -76 46 -120 46 -28 0 -35 4 -32 18 3 16 25 17 273 20 149 1 299 -2
334 -7 107 -17 191 -69 191 -120 0 -4 -28 -11 -62 -14 -103 -10 -124 -21 -132
-70 -6 -36 -4 -44 16 -59 69 -52 101 -85 119 -120 19 -38 39 -50 39 -24 0 7 7
19 16 26 8 7 14 23 13 34 -2 12 11 58 29 103 18 45 32 93 32 106 0 13 9 50 20
83 22 64 52 101 153 187 32 27 57 55 57 63 0 8 9 14 19 14 26 0 32 11 22 46
-13 49 -63 53 -606 54 -264 0 -485 4 -492 8 -6 4 -25 59 -42 122 -93 352 -142
691 -171 1190 -23 399 -15 570 36 816 8 42 13 81 10 87 -2 7 -5 8 -5 3z"/>
<path d="M13587 7475 c-24 -260 -18 -411 29 -645 22 -108 75 -291 103 -355 5
-11 15 -36 21 -55 46 -129 136 -297 188 -352 14 -16 22 -28 18 -28 -12 0 84
-79 118 -96 50 -27 109 -40 146 -33 19 4 38 5 43 2 5 -3 12 -1 16 6 12 18 140
26 276 17 170 -12 581 -13 815 -2 145 7 195 6 230 -5 110 -32 177 -25 257 28
127 83 233 257 341 558 86 237 121 417 129 660 6 179 -4 351 -18 305 -7 -24
-7 -24 -8 -2 -1 12 -5 22 -11 22 -5 0 -10 -2 -10 -4 0 -23 -45 -303 -61 -376
-72 -338 -242 -613 -498 -805 -515 -388 -1251 -326 -1692 143 -212 225 -321
490 -370 901 -12 104 -24 145 -38 136 -5 -3 -11 9 -13 27 -2 19 -6 -2 -11 -47z"/>
<path d="M5693 7060 c24 -79 43 -130 48 -130 7 0 50 122 45 128 -2 2 -7 -6
-11 -17 -10 -34 -49 -26 -74 14 -7 11 -10 13 -8 5z"/>
<path d="M8249 6966 c-45 -21 -189 -368 -189 -458 0 -41 31 -84 55 -74 15 5
25 -14 25 -46 0 -23 37 -88 50 -88 5 0 2 16 -6 35 -29 71 -12 161 60 309 41
85 50 96 90 115 48 24 242 51 361 51 146 -1 335 -46 393 -95 15 -12 49 -63 76
-111 27 -49 66 -113 85 -143 43 -64 78 -131 86 -164 5 -19 -1 -33 -25 -61 -18
-20 -28 -36 -24 -36 5 0 38 5 73 11 69 11 113 37 121 72 4 13 15 23 28 25 12
2 29 14 37 26 13 20 13 29 0 77 -22 82 -199 498 -226 531 l-24 29 -512 2
c-302 1 -521 -2 -534 -7z"/>
<path d="M17353 6798 c-12 -13 -33 -48 -48 -78 -56 -113 -86 -130 -254 -139
-138 -8 -170 -19 -191 -70 -6 -16 -10 -44 -8 -62 2 -27 10 -37 35 -49 21 -10
36 -26 44 -47 13 -39 76 -96 143 -129 69 -34 83 -31 52 9 -41 54 -35 71 42
121 37 24 83 59 103 77 75 72 129 207 129 326 0 70 -11 79 -47 41z"/>
<path d="M4064 6105 c-3 -7 -4 -28 -2 -47 2 -26 8 -34 28 -37 14 -1 36 -11 50
-21 14 -10 77 -33 140 -53 63 -19 141 -44 172 -56 83 -31 152 -27 292 14 66
19 129 35 140 35 35 1 121 34 154 60 26 21 31 32 31 72 l1 46 -501 0 c-404 0
-501 -2 -505 -13z"/>
<path d="M6080 6068 c0 -45 2 -48 25 -48 14 0 25 -5 25 -11 0 -14 51 -34 155
-58 96 -23 203 -76 228 -113 78 -119 142 -157 256 -158 93 0 139 24 202 107
24 31 55 67 69 80 40 35 145 82 219 98 73 15 121 33 121 46 0 4 15 9 33 11 30
3 32 6 35 44 l3 42 -343 7 c-189 4 -497 5 -685 3 l-343 -3 0 -47z"/>
<path d="M7603 6113 l-93 -4 0 -44 c0 -41 2 -45 25 -45 14 0 37 -8 51 -17 15
-9 60 -24 103 -34 42 -9 121 -29 176 -45 160 -44 198 -41 519 37 44 10 89 27
100 37 12 11 29 22 39 25 12 5 17 17 17 49 l0 43 -423 1 c-232 1 -464 -1 -514
-3z"/>
<path d="M9120 6072 c0 -65 40 -102 172 -156 119 -49 133 -57 194 -116 43 -41
70 -54 149 -70 62 -14 154 20 224 81 80 71 210 130 340 156 42 8 87 22 101 32
14 9 39 18 55 21 27 5 30 9 33 46 l3 42 -227 7 c-125 4 -410 6 -635 4 l-409
-4 0 -43z"/>
<path d="M10562 6113 l-113 -4 3 -42 c3 -38 6 -42 33 -45 17 -2 37 -10 46 -18
8 -8 47 -21 85 -30 38 -8 130 -35 205 -60 167 -54 219 -57 340 -15 46 16 127
38 180 50 109 23 144 35 154 51 4 6 18 15 31 20 20 8 24 17 24 48 l0 39 -152
6 c-145 7 -599 6 -836 0z"/>
<path d="M5009 5431 c-19 -9 -49 -26 -65 -39 l-31 -23 5 -127 c5 -130 11 -152
43 -152 15 0 19 -7 19 -34 0 -19 4 -37 8 -40 4 -2 6 83 4 190 l-4 194 25 0
c44 0 87 12 87 25 0 20 -53 23 -91 6z"/>
<path d="M1132 5428 c3 -7 24 -14 49 -16 24 -2 48 -7 53 -12 4 -4 7 -67 7
-139 -2 -114 0 -130 14 -125 11 5 15 21 15 63 0 104 35 109 49 7 4 -30 15 -64
25 -75 11 -12 15 -27 11 -44 -5 -19 -2 -28 14 -37 28 -14 46 -3 26 16 -17 18
-20 34 -5 34 17 0 50 -39 50 -60 0 -13 7 -20 20 -20 11 0 20 -7 20 -15 0 -11
-11 -15 -40 -15 -22 0 -57 7 -77 15 -44 19 -96 19 -131 1 -15 -7 -44 -16 -64
-20 -71 -13 -33 -46 53 -46 16 0 29 -4 29 -9 0 -5 15 -15 34 -21 37 -12 116 2
116 20 0 6 18 10 39 10 22 0 43 5 46 10 4 6 14 5 28 -5 64 -45 152 -38 206 16
30 29 71 108 71 135 0 20 28 17 38 -3 5 -10 8 -30 5 -44 -2 -20 2 -28 17 -32
24 -6 34 8 35 48 0 20 5 29 14 27 27 -6 41 20 41 72 0 29 5 78 11 109 13 73 6
93 -33 101 -47 9 -70 -12 -135 -121 -59 -101 -98 -147 -116 -136 -5 3 -7 2 -4
-4 8 -13 -37 -37 -56 -30 -8 3 -45 61 -83 129 -87 156 -98 168 -164 168 -37 0
-65 8 -107 30 -57 31 -128 41 -121 18z"/>
<path d="M2125 5420 c-22 -10 -50 -28 -62 -38 -21 -19 -22 -24 -13 -101 11
-99 30 -163 45 -157 21 8 36 -30 24 -58 -7 -14 -8 -33 -5 -43 7 -15 9 -14 21
12 l13 30 10 -25 c10 -24 11 -24 11 -3 1 12 -3 24 -8 27 -5 4 -14 37 -21 75
-9 54 -9 87 0 145 7 41 10 84 7 96 -5 18 -1 20 44 20 42 0 49 3 49 20 0 16 -7
20 -37 20 -21 0 -56 -9 -78 -20z"/>
<path d="M2694 5420 c-23 -11 -52 -32 -65 -46 -24 -25 -24 -26 -5 -40 11 -8
28 -14 38 -14 14 0 18 -8 18 -34 l0 -35 48 4 c97 9 162 34 162 62 0 7 9 13 20
13 29 0 36 27 14 51 -29 33 -68 49 -131 55 -47 4 -66 1 -99 -16z"/>
<path d="M3992 5429 c3 -8 15 -15 29 -17 13 -1 39 -5 57 -8 l32 -5 0 -142 c1
-127 2 -140 15 -123 9 12 15 42 15 77 0 92 34 91 45 -1 3 -25 12 -58 20 -73 8
-16 15 -41 15 -57 0 -22 7 -30 33 -40 17 -7 48 -20 67 -29 l35 -16 -44 -3
c-27 -2 -60 3 -82 13 -41 19 -78 17 -174 -10 -71 -20 -71 -20 -55 -40 8 -9 29
-15 56 -15 24 0 44 -4 44 -9 0 -15 67 -41 107 -41 21 0 60 7 87 15 43 13 55
13 99 0 67 -20 96 -19 164 5 59 21 99 25 105 13 2 -5 23 -19 48 -33 38 -21 58
-25 121 -24 80 1 161 29 173 59 4 10 20 15 50 15 39 0 56 11 56 35 0 1 -24 5
-54 7 -43 4 -62 11 -91 36 -32 29 -42 32 -100 32 -58 0 -68 -3 -100 -32 -27
-23 -49 -32 -86 -36 -41 -4 -49 -2 -49 12 0 16 37 22 98 17 19 -2 22 3 22 39
0 32 4 40 19 40 32 0 38 21 46 147 l7 123 -28 10 c-49 19 -76 -2 -130 -98 -53
-94 -141 -192 -173 -192 -24 0 -38 21 -121 168 -68 123 -79 132 -158 132 -33
0 -56 7 -84 26 -44 31 -144 48 -136 23z"/>
<path d="M6100 5428 c0 -11 18 -18 63 -24 l62 -9 5 -139 c4 -116 7 -135 17
-115 6 13 14 43 16 67 3 24 8 46 11 50 12 11 28 -17 37 -64 5 -26 16 -56 25
-65 9 -10 14 -25 10 -34 -8 -22 11 -55 30 -55 11 0 14 5 9 18 -16 38 -17 53
-5 67 27 33 90 9 165 -61 32 -31 147 -119 190 -147 74 -48 150 -40 190 19 17
25 20 48 22 164 1 157 27 300 53 300 18 0 40 19 40 33 0 14 -76 -1 -121 -23
-45 -23 -67 -25 -92 -5 -24 18 -113 39 -133 31 -13 -5 -14 -9 -4 -21 7 -8 21
-15 31 -15 17 0 19 -8 19 -65 0 -47 -4 -66 -16 -73 -12 -7 -6 -16 33 -46 l48
-38 5 49 c3 28 10 48 17 48 7 0 18 8 26 18 12 18 14 18 28 1 18 -22 19 -169 1
-201 -29 -52 -76 -30 -311 146 -162 121 -178 130 -230 137 -33 4 -71 17 -94
32 -46 31 -147 44 -147 20z m817 -260 c-2 -18 -4 -4 -4 32 0 36 2 50 4 33 2
-18 2 -48 0 -65z"/>
<path d="M7487 5430 c-114 -29 -210 -121 -191 -183 9 -31 34 -57 55 -57 9 0
20 -6 22 -12 3 -7 6 -2 6 11 2 40 33 145 50 164 42 49 165 67 235 33 45 -21
52 -31 70 -102 18 -71 20 -131 6 -169 -7 -17 -7 -24 0 -20 5 3 13 24 16 46 5
29 13 42 33 52 33 16 54 59 46 97 -8 35 -72 96 -130 121 -50 22 -165 32 -218
19z"/>
<path d="M8362 5429 c3 -8 28 -18 61 -23 l57 -9 0 -134 c0 -140 -7 -169 -49
-207 -27 -25 -51 -14 -51 24 0 35 -4 36 -85 14 -33 -9 -90 -15 -127 -15 l-68
1 10 -24 c14 -37 70 -93 111 -110 20 -8 62 -15 95 -14 32 0 79 -7 104 -15 69
-24 100 -27 149 -15 51 13 131 85 131 118 0 11 5 20 10 20 6 0 10 66 10 179 0
195 -1 191 60 191 16 0 30 7 34 15 13 34 -72 13 -128 -31 l-33 -27 5 -106 c4
-104 4 -107 -22 -138 -39 -47 -172 -126 -219 -130 -48 -5 -87 3 -87 18 0 6 4
8 9 5 14 -9 110 20 131 39 12 10 20 26 19 34 -3 38 2 51 21 51 29 0 37 24 43
131 l5 97 -46 33 c-34 25 -59 34 -100 37 -43 4 -54 2 -50 -9z"/>
<path d="M9250 5430 c0 -15 35 -30 70 -30 25 0 31 -4 26 -15 -3 -8 -1 -50 4
-93 6 -47 6 -114 1 -172 -5 -52 -7 -99 -4 -103 10 -17 33 17 30 47 -1 22 2 31
13 31 35 1 40 15 40 110 0 52 5 106 11 122 9 25 7 31 -23 57 -18 15 -47 34
-65 42 -37 16 -103 19 -103 4z"/>
<path d="M9631 5430 c-13 -6 -41 -24 -62 -41 -44 -34 -42 -55 5 -67 28 -7 31
-12 28 -40 -3 -30 -2 -32 25 -27 15 2 57 7 93 10 63 6 110 29 110 54 0 6 13
11 29 11 34 0 46 -23 36 -69 -6 -28 -7 -28 -97 -35 -50 -3 -124 -6 -163 -6
-77 0 -89 -6 -100 -53 -9 -34 17 -77 45 -77 14 0 20 -7 20 -24 0 -49 8 -55 63
-51 156 14 200 28 210 67 3 10 14 18 26 18 25 0 26 18 6 75 -8 22 -15 44 -15
49 0 9 47 4 113 -13 l37 -9 0 33 c0 18 7 46 15 61 28 54 23 57 -60 50 -42 -4
-82 -9 -90 -13 -9 -3 -15 1 -15 9 0 16 -44 60 -78 77 -31 16 -151 23 -181 11z"/>
<path d="M10192 5428 c3 -7 15 -14 29 -16 13 -1 39 -5 57 -8 l32 -5 0 -151 c0
-83 3 -148 7 -145 3 4 11 3 17 -3 7 -5 18 -5 26 0 11 7 16 40 21 137 6 144 6
144 -76 183 -46 22 -119 27 -113 8z"/>
<path d="M10571 5429 c-13 -5 -41 -23 -61 -39 -36 -28 -38 -33 -29 -63 5 -17
9 -75 9 -128 0 -81 3 -98 17 -103 9 -4 20 -1 25 6 9 14 11 7 12 -46 1 -16 7
-31 15 -34 11 -4 12 2 7 24 -13 50 -22 345 -11 352 6 4 30 9 54 12 54 6 69 30
19 29 -18 0 -44 -5 -57 -10z"/>
<path d="M10978 5426 c-21 -7 -38 -11 -38 -7 -1 3 -7 -5 -14 -18 -21 -37 -9
-68 31 -82 44 -14 52 -5 30 33 -9 16 -15 34 -11 39 3 5 40 9 82 8 58 0 89 -6
124 -22 l46 -22 -18 -37 -17 -36 44 -7 c24 -3 68 -15 98 -25 43 -15 53 -16 48
-4 -3 8 1 14 10 14 20 0 24 16 19 73 l-4 48 -37 -6 c-28 -5 -62 2 -132 25
-111 37 -207 47 -261 26z"/>
<path d="M11475 5430 c-3 -6 2 -13 12 -16 50 -16 62 -26 79 -66 46 -108 179
-364 206 -394 75 -85 166 -61 243 65 20 33 44 63 54 66 32 10 69 -16 105 -74
52 -85 86 -113 143 -118 81 -8 105 16 193 194 42 83 83 160 92 170 24 28 41
65 47 103 5 30 11 35 36 38 31 4 55 18 55 33 0 14 -50 10 -95 -7 -22 -8 -44
-16 -50 -17 -5 -1 -16 -8 -23 -14 -18 -18 -37 -16 -53 4 -15 18 -70 43 -94 43
-13 0 -14 -4 -5 -20 7 -13 21 -20 40 -20 30 0 40 -13 20 -25 -21 -13 -10 -32
15 -27 43 8 43 -23 -1 -107 -42 -83 -100 -155 -117 -144 -5 3 -7 2 -4 -4 4 -5
-5 -16 -18 -23 -34 -18 -48 -4 -124 125 -98 167 -126 172 -204 32 -48 -85 -95
-138 -144 -160 -32 -14 -37 -9 -137 166 l-77 134 -77 37 c-81 37 -106 43 -117
26z"/>
<path d="M11902 5428 c3 -7 28 -17 56 -21 52 -9 57 -14 54 -58 -1 -12 6 -14
29 -11 16 2 32 9 35 14 9 14 -35 58 -73 74 -42 18 -106 19 -101 2z"/>
<path d="M12284 5430 c-36 -14 -38 -30 -5 -30 39 0 61 9 61 26 0 16 -24 17
-56 4z"/>
<path d="M13887 5428 c-75 -21 -87 -98 -17 -113 43 -9 46 -2 12 32 l-29 29 25
12 c31 14 168 16 177 2 3 -5 15 -10 27 -10 18 0 19 -4 13 -37 -4 -21 -11 -44
-17 -50 -8 -10 -3 -13 23 -14 32 0 144 -27 182 -43 12 -6 17 -4 17 8 0 9 5 16
10 16 6 0 10 27 10 61 l0 60 -42 -6 c-33 -5 -64 1 -133 25 -99 34 -199 45
-258 28z"/>
<path d="M11810 5420 c-12 -8 -9 -10 12 -10 15 0 30 5 33 10 8 13 -25 13 -45
0z"/>
<path d="M12250 5376 c0 -2 8 -10 18 -17 15 -13 16 -12 3 4 -13 16 -21 21 -21
13z"/>
<path d="M5528 5345 c-33 -18 -68 -74 -68 -108 0 -19 -12 -36 -41 -59 -23 -18
-45 -32 -49 -31 -7 2 -11 -16 -12 -65 -2 -47 22 -66 76 -63 35 1 45 -2 49 -16
4 -15 5 -14 6 3 2 41 50 45 97 9 34 -26 54 -32 54 -15 0 6 19 10 43 9 l42 -1
-30 -13 c-16 -8 -40 -14 -52 -15 -13 0 -23 -6 -23 -12 0 -16 60 -65 95 -78 56
-21 192 -3 226 31 12 12 36 19 71 21 78 4 76 28 -4 50 -67 17 -185 58 -205 71
-7 5 -13 17 -13 28 0 11 -24 46 -54 77 -29 31 -56 68 -59 82 -4 14 -23 45 -42
68 -39 45 -62 51 -107 27z m72 -174 c22 -2 -30 -30 -57 -31 -12 0 -34 5 -50
11 -24 10 -26 12 -10 18 16 6 63 7 117 2z"/>
<path d="M13053 5333 c-23 -15 -40 -30 -37 -34 2 -4 0 -10 -6 -14 -5 -3 -10
-20 -10 -36 0 -30 -8 -40 -85 -108 -23 -21 -26 -31 -21 -60 3 -20 13 -42 23
-48 25 -19 71 -16 82 5 30 55 109 56 155 2 20 -24 33 -30 68 -31 l43 -1 -30
-13 c-16 -8 -40 -14 -53 -15 -20 0 -21 -3 -12 -20 6 -12 21 -20 36 -20 14 0
38 -10 54 -21 25 -19 38 -21 108 -17 50 3 90 11 105 21 13 9 49 17 78 19 79 4
78 28 -3 50 -67 17 -185 58 -205 71 -7 5 -13 17 -13 27 0 10 -25 46 -55 78
-30 33 -55 67 -55 75 0 8 -18 38 -40 66 -47 60 -67 63 -127 24z m92 -163 c3
-4 -9 -13 -26 -20 -33 -14 -100 -4 -106 16 -4 12 124 17 132 4z"/>
<path d="M12280 5334 c0 -6 7 -19 15 -30 8 -10 14 -14 14 -9 0 6 -6 19 -14 29
-8 11 -15 15 -15 10z"/>
<path d="M12446 5294 c-23 -50 -16 -52 12 -3 12 21 19 39 14 39 -4 0 -16 -16
-26 -36z"/>
<path d="M10750 5303 c0 -26 51 -143 63 -143 5 0 36 -25 69 -55 60 -56 75 -62
108 -45 22 12 124 -5 156 -25 25 -16 98 -3 126 22 23 20 33 11 19 -16 -23 -43
-68 -56 -186 -55 -90 0 -120 4 -165 22 -54 23 -129 42 -182 47 -27 3 -28 2
-28 -51 l0 -54 44 -20 c54 -24 106 -25 228 -4 50 9 110 13 132 10 111 -16 145
-17 183 -7 49 13 99 52 109 84 4 12 10 24 14 27 5 3 11 23 15 44 l8 39 -55 -6
c-50 -6 -56 -5 -77 19 -34 39 -94 61 -219 79 -140 20 -183 33 -246 73 -57 36
-116 44 -116 15z"/>
<path d="M11997 5313 c-4 -3 -7 -11 -7 -17 0 -6 5 -5 12 2 6 6 9 14 7 17 -3 3
-9 2 -12 -2z"/>
<path d="M13660 5299 c0 -32 52 -117 107 -176 59 -62 88 -79 109 -62 19 16 82
6 137 -21 40 -20 49 -21 98 -11 29 7 62 19 72 29 18 16 19 16 16 -8 -3 -15
-17 -32 -39 -44 -30 -18 -51 -21 -145 -20 -60 0 -121 5 -135 11 -14 6 -28 11
-32 12 -4 1 -23 8 -42 16 -18 8 -63 17 -100 21 l-67 7 3 -53 3 -53 58 -18 c51
-16 72 -17 150 -9 72 7 114 6 194 -7 115 -17 170 -10 231 30 34 23 92 124 92
160 0 18 -5 19 -56 14 -53 -5 -58 -4 -80 23 -33 39 -84 57 -220 75 -128 18
-187 37 -248 78 -50 34 -106 37 -106 6z"/>
<path d="M12316 5267 c3 -10 9 -15 12 -12 3 3 0 11 -7 18 -10 9 -11 8 -5 -6z"/>
<path d="M4510 5231 c1 -15 30 -42 39 -36 20 11 12 33 -14 37 -14 3 -25 2 -25
-1z"/>
<path d="M7113 5159 c8 -97 57 -167 148 -214 42 -22 118 -29 154 -15 37 15
260 13 288 -2 31 -16 113 -11 160 10 55 25 132 109 146 158 6 22 11 61 11 88
0 47 0 48 -27 41 -15 -3 -56 -34 -92 -67 -142 -133 -227 -178 -336 -178 -107
0 -207 54 -334 180 -34 33 -66 60 -73 61 -7 0 -22 2 -32 4 -17 3 -18 -2 -13
-66z"/>
<path d="M2633 5214 c-7 -3 -15 -21 -19 -40 -7 -41 16 -84 46 -84 14 0 20 -7
20 -24 0 -50 8 -56 72 -56 43 0 59 -3 56 -12 -11 -32 -91 -19 -143 22 -33 26
-46 30 -102 30 -55 0 -67 -3 -87 -25 -27 -29 -66 -45 -112 -45 -27 0 -34 -4
-34 -20 0 -11 6 -20 13 -20 7 0 21 -16 30 -35 18 -37 76 -85 129 -105 188 -71
200 -80 205 -151 4 -59 25 -112 78 -195 21 -33 75 -126 120 -209 93 -171 157
-270 290 -450 73 -100 117 -166 119 -181 1 -7 15 -28 32 -45 18 -20 23 -30 12
-26 -12 4 -15 2 -11 -9 7 -18 0 -18 -40 4 -224 121 -660 634 -921 1085 -16 26
-30 47 -33 47 -8 0 67 -129 144 -249 318 -490 830 -1014 1326 -1358 628 -435
1368 -735 2100 -852 186 -30 229 -35 495 -61 241 -23 760 -9 1067 30 654 82
1344 311 1890 627 178 103 196 115 191 120 -3 3 -17 -4 -33 -15 -15 -11 -45
-29 -65 -41 -21 -11 -55 -31 -75 -43 -100 -56 -166 -92 -258 -137 -122 -59
-288 -135 -330 -151 -31 -11 -78 -31 -97 -41 -10 -5 -25 -9 -33 -9 -8 0 -23
-4 -33 -9 -63 -32 -319 -111 -410 -127 -15 -3 -35 -7 -44 -10 -10 -3 -30 -7
-45 -10 -16 -3 -73 -14 -128 -25 -130 -26 -131 -26 -265 -39 -63 -7 -117 -13
-120 -15 -3 -1 -14 1 -25 5 -11 4 -30 4 -42 -1 -12 -5 -25 -4 -28 0 -3 5 17
12 44 16 26 4 61 13 76 21 15 8 35 14 44 14 9 1 34 8 56 16 22 8 47 16 55 18
8 1 22 5 30 9 8 3 40 13 70 21 70 19 283 92 335 116 22 10 72 30 110 45 410
161 965 500 1350 824 357 301 895 959 979 1199 8 22 26 59 41 82 14 23 24 49
22 58 -4 13 -5 13 -6 -3 -1 -13 -17 -29 -46 -44 -35 -19 -68 -54 -144 -155
-257 -341 -650 -749 -968 -1003 -959 -767 -2173 -1111 -3398 -962 -785 95
-1521 391 -2171 874 -382 284 -764 682 -1027 1071 l-82 122 -81 40 c-50 25
-81 46 -81 56 0 14 44 16 426 18 420 2 422 2 156 8 -263 6 -311 12 -355 43
-26 18 -16 26 67 56 94 35 174 112 171 167 0 10 3 28 7 38 8 17 5 18 -26 12
-19 -4 -43 -10 -54 -13 -36 -11 -79 -5 -130 17 -62 26 -87 50 -110 100 -13 28
-28 43 -56 54 -39 16 -185 30 -206 20z m708 -1621 c13 -16 12 -17 -3 -4 -17
13 -22 21 -14 21 2 0 10 -8 17 -17z"/>
<path d="M12362 5195 c6 -14 14 -25 18 -25 4 0 12 11 18 25 11 24 10 25 -18
25 -28 0 -29 -1 -18 -25z"/>
<path d="M11910 5180 c0 -5 5 -10 10 -10 6 0 10 5 10 10 0 6 -4 10 -10 10 -5
0 -10 -4 -10 -10z"/>
<path d="M7380 5125 c0 -5 5 -17 10 -25 5 -8 10 -10 10 -5 0 6 -5 17 -10 25
-5 8 -10 11 -10 5z"/>
<path d="M10003 5085 c-29 -8 -76 -30 -104 -50 -62 -42 -105 -55 -187 -55 -66
0 -104 14 -136 49 -16 17 -31 21 -82 21 -52 0 -67 -4 -92 -25 -37 -31 -74 -45
-118 -45 -22 0 -34 -5 -34 -14 0 -17 21 -26 60 -26 18 0 33 -8 44 -25 22 -34
62 -52 138 -65 47 -7 81 -7 119 1 30 6 113 12 184 13 119 1 135 4 185 29 31
14 67 39 82 54 23 25 58 108 58 138 0 16 -57 16 -117 0z"/>
<path d="M6225 5079 c-4 -6 -5 -12 -2 -15 2 -3 7 2 10 11 7 17 1 20 -8 4z"/>
<path d="M4099 5063 c-13 -16 -12 -17 4 -4 9 7 17 15 17 17 0 8 -8 3 -21 -13z"/>
<path d="M10298 5051 c-2 -17 -1 -31 4 -31 14 0 20 28 10 46 -8 14 -10 11 -14
-15z"/>
<path d="M1900 5020 c-32 -31 -84 -46 -125 -36 -25 6 -30 0 -19 -28 4 -10 18
-16 39 -16 20 0 39 -8 51 -21 10 -12 32 -28 48 -36 42 -22 170 -27 232 -10
l52 13 22 -55 c13 -31 38 -88 56 -128 19 -40 34 -75 34 -78 0 -4 29 -66 64
-138 35 -73 67 -142 71 -155 18 -59 145 -299 256 -484 150 -251 274 -438 418
-633 60 -82 137 -186 169 -230 32 -44 69 -96 82 -115 13 -19 41 -56 63 -82 21
-27 35 -48 31 -48 -4 0 6 -15 22 -32 17 -18 55 -64 86 -103 64 -81 240 -260
319 -325 48 -39 105 -89 194 -170 17 -15 68 -55 115 -90 47 -34 87 -65 90 -69
7 -11 176 -123 300 -199 58 -36 108 -70 112 -76 5 -6 8 -7 8 -1 0 6 3 5 8 -1
13 -20 198 -123 387 -217 140 -69 308 -147 325 -151 3 -1 14 -7 25 -13 11 -6
70 -28 130 -49 61 -21 111 -41 113 -45 2 -5 10 -5 18 -2 8 3 14 1 14 -5 0 -8
9 -13 50 -26 3 -1 28 -8 55 -15 28 -8 55 -18 60 -22 30 -22 549 -143 690 -160
44 -6 82 -14 85 -19 3 -4 28 -10 55 -13 55 -5 125 -28 125 -39 0 -5 7 -8 15
-8 27 0 114 -90 140 -146 14 -30 39 -93 56 -141 30 -85 65 -163 78 -173 10 -8
47 -63 64 -95 22 -42 113 -135 132 -135 8 0 15 -4 15 -8 0 -5 28 -17 63 -28
85 -26 240 -26 280 0 15 10 27 15 27 11 0 -3 13 3 29 14 16 12 33 21 37 21 18
0 157 175 159 200 0 3 10 19 21 35 27 38 63 119 69 156 3 15 10 41 16 56 6 15
12 35 14 43 38 151 139 231 335 264 323 54 771 166 1047 260 39 13 74 22 77
18 3 -3 6 -1 6 4 0 5 8 10 17 11 29 2 111 32 203 73 47 21 112 48 145 60 33
12 87 33 120 47 158 67 183 75 256 80 60 4 87 2 125 -13 27 -10 51 -21 54 -24
3 -4 25 -19 50 -35 25 -15 65 -46 90 -70 68 -63 189 -154 229 -172 81 -34 190
-15 274 49 88 66 236 273 281 391 10 27 42 87 72 133 29 47 60 111 69 142 17
56 17 57 -14 152 -76 239 -69 266 116 461 129 136 188 207 254 302 30 43 72
104 94 136 22 31 55 82 74 112 64 101 133 204 181 269 26 36 63 97 82 135 19
39 46 93 60 120 14 28 79 160 144 295 177 364 187 382 216 403 35 26 93 24
249 -8 278 -58 345 -63 407 -31 62 32 111 122 134 246 6 30 16 75 24 100 7 24
11 46 9 48 -5 5 -100 -45 -112 -60 -6 -7 -20 -44 -33 -81 -12 -38 -28 -71 -35
-73 -7 -3 -154 18 -326 46 -184 31 -326 50 -347 47 -55 -10 -78 -31 -128 -124
-322 -599 -716 -1111 -1173 -1526 -245 -223 -241 -219 -241 -261 0 -31 5 -38
35 -53 31 -16 47 -44 161 -273 69 -140 132 -262 140 -271 14 -15 10 -17 -42
-24 -53 -6 -67 -15 -280 -176 -124 -93 -229 -169 -234 -169 -11 0 -68 51 -299
265 -94 88 -186 166 -204 173 -18 8 -47 11 -67 8 -20 -3 -128 -53 -240 -110
-491 -250 -958 -412 -1500 -519 -109 -22 -190 -34 -513 -77 -77 -10 -113 -29
-128 -68 -6 -15 -24 -103 -40 -197 -57 -339 -78 -447 -84 -453 -8 -9 -549 -15
-591 -7 l-31 5 -57 317 c-32 174 -64 330 -72 345 -8 15 -23 32 -34 38 -12 6
-105 22 -208 35 -390 51 -661 109 -990 211 -961 298 -1845 862 -2516 1604
-459 507 -798 982 -1061 1483 -64 123 -75 149 -65 167 6 11 13 20 16 20 3 0 3
-3 1 -7 -3 -5 5 -17 15 -28 19 -19 19 -17 -1 23 -16 31 -19 47 -12 56 8 9 -2
17 -43 29 -29 10 -70 31 -91 47 -33 26 -46 30 -101 30 -57 0 -67 -3 -94 -30z"/>
<path d="M10336 5019 c-27 -23 -48 -32 -91 -36 -44 -5 -55 -9 -53 -22 2 -11
16 -17 48 -19 26 -2 54 -11 65 -21 36 -33 63 -41 132 -41 68 0 133 25 133 50
0 5 15 10 34 10 44 0 66 9 66 26 0 9 -12 14 -35 14 -44 0 -94 20 -119 49 -16
17 -30 21 -82 21 -56 0 -67 -3 -98 -31z"/>
<path d="M5250 5008 c-19 -10 -57 -21 -83 -24 -37 -5 -47 -10 -45 -23 2 -12
17 -17 62 -19 33 -2 68 -10 80 -18 27 -18 97 -18 122 1 10 8 38 15 62 15 34 0
42 3 42 19 0 15 -10 19 -46 24 -25 2 -59 14 -74 26 -33 24 -70 23 -120 -1z"/>
<path d="M6230 5009 c-25 -11 -65 -22 -89 -24 -51 -5 -58 -9 -41 -30 8 -9 29
-15 56 -15 30 0 50 -6 63 -19 27 -27 102 -37 145 -20 19 8 34 19 35 24 0 6 17
12 38 15 24 3 39 11 41 21 2 13 -8 18 -47 23 -28 4 -69 15 -93 26 -53 24 -53
24 -108 -1z"/>
<path d="M12800 5010 c-30 -10 -74 -22 -98 -26 -32 -5 -42 -10 -40 -23 2 -12
16 -17 52 -19 28 -2 54 -9 60 -16 23 -28 145 -25 154 3 2 6 19 11 37 11 76 0
92 34 19 43 -25 2 -59 14 -75 26 -34 25 -39 25 -109 1z"/>
<path d="M3280 4995 c0 -6 11 -26 25 -45 28 -38 32 -65 10 -74 -21 -8 -19 -33
5 -46 51 -28 181 28 221 94 31 51 26 60 -31 53 -28 -3 -63 -2 -78 4 -45 17
-152 27 -152 14z"/>
<path d="M2260 4831 c0 -6 4 -13 10 -16 6 -3 7 1 4 9 -7 18 -14 21 -14 7z"/>
<path d="M2315 4730 c9 -16 18 -30 21 -30 2 0 -2 14 -11 30 -9 17 -18 30 -21
30 -2 0 2 -13 11 -30z"/>
<path d="M10663 4713 c15 -2 37 -2 50 0 12 2 0 4 -28 4 -27 0 -38 -2 -22 -4z"/>
<path d="M11277 4713 c-5 -7 776 -7 1843 0 223 1 -100 3 -717 5 -617 1 -1124
-1 -1126 -5z"/>
<path d="M10609 4693 c-13 -16 -12 -17 4 -4 16 13 21 21 13 21 -2 0 -10 -8
-17 -17z"/>
<path d="M13526 4695 c-3 -8 -1 -15 4 -15 6 0 10 7 10 15 0 8 -2 15 -4 15 -2
0 -6 -7 -10 -15z"/>
<path d="M11224 4626 c-10 -20 -21 -36 -26 -36 -4 0 -8 -5 -8 -11 0 -6 -13
-30 -30 -54 -16 -24 -30 -46 -30 -50 0 -3 -31 -52 -70 -108 -101 -148 -130
-188 -175 -243 -22 -27 -31 -42 -21 -35 28 23 176 224 268 366 94 144 122 194
114 202 -3 3 -13 -11 -22 -31z"/>
<path d="M10559 4633 c-13 -16 -12 -17 4 -4 16 13 21 21 13 21 -2 0 -10 -8
-17 -17z"/>
<path d="M4139 4557 c33 -40 72 -84 87 -97 15 -14 -10 19 -56 73 -46 53 -85
97 -87 97 -3 0 23 -33 56 -73z"/>
<path d="M10524 4588 l-19 -23 23 19 c21 18 27 26 19 26 -2 0 -12 -10 -23 -22z"/>
<path d="M10464 4518 l-19 -23 23 19 c21 18 27 26 19 26 -2 0 -12 -10 -23 -22z"/>
<path d="M10389 4433 c-13 -16 -12 -17 4 -4 16 13 21 21 13 21 -2 0 -10 -8
-17 -17z"/>
<path d="M4280 4397 c0 -1 35 -36 78 -77 l77 -75 -75 78 c-69 71 -80 82 -80
74z"/>
<path d="M4520 4167 c0 -2 15 -16 33 -33 l32 -29 -29 33 c-28 30 -36 37 -36
29z"/>
<path d="M4620 4075 c13 -14 26 -25 28 -25 3 0 -5 11 -18 25 -13 14 -26 25
-28 25 -3 0 5 -11 18 -25z"/>
<path d="M4680 4025 c13 -14 26 -25 28 -25 3 0 -5 11 -18 25 -13 14 -26 25
-28 25 -3 0 5 -11 18 -25z"/>
<path d="M10799 4013 c-13 -16 -12 -17 4 -4 16 13 21 21 13 21 -2 0 -10 -8
-17 -17z"/>
<path d="M4720 3997 c0 -3 18 -20 40 -37 22 -17 40 -29 40 -27 0 3 -18 20 -40
37 -22 17 -40 29 -40 27z"/>
<path d="M10739 3943 c-13 -16 -12 -17 4 -4 16 13 21 21 13 21 -2 0 -10 -8
-17 -17z"/>
<path d="M9834 3928 l-19 -23 23 19 c12 11 22 21 22 23 0 8 -8 2 -26 -19z"/>
<path d="M4810 3927 c0 -3 17 -17 37 -33 20 -15 33 -23 29 -16 -8 13 -66 56
-66 49z"/>
<path d="M10684 3878 l-19 -23 23 19 c21 18 27 26 19 26 -2 0 -12 -10 -23 -22z"/>
<path d="M9759 3873 c-13 -16 -12 -17 4 -4 16 13 21 21 13 21 -2 0 -10 -8 -17
-17z"/>
<path d="M4924 3841 c7 -11 46 -35 46 -28 0 3 -12 12 -26 22 -15 9 -23 12 -20
6z"/>
<path d="M4984 3801 c7 -11 46 -35 46 -28 0 3 -12 12 -26 22 -15 9 -23 12 -20
6z"/>
<path d="M10574 3758 l-29 -33 33 29 c30 28 37 36 29 36 -2 0 -16 -15 -33 -32z"/>
<path d="M9534 3724 c-18 -14 -18 -15 4 -4 12 6 22 13 22 15 0 8 -5 6 -26 -11z"/>
<path d="M5150 3696 c0 -3 9 -10 20 -16 11 -6 20 -8 20 -6 0 3 -9 10 -20 16
-11 6 -20 8 -20 6z"/>
<path d="M5230 3646 c0 -2 7 -7 16 -10 8 -3 12 -2 9 4 -6 10 -25 14 -25 6z"/>
<path d="M5340 3586 c0 -2 7 -7 16 -10 8 -3 12 -2 9 4 -6 10 -25 14 -25 6z"/>
<path d="M5380 3566 c0 -2 7 -7 16 -10 8 -3 12 -2 9 4 -6 10 -25 14 -25 6z"/>
<path d="M10344 3528 l-29 -33 33 29 c30 28 37 36 29 36 -2 0 -16 -15 -33 -32z"/>
<path d="M5460 3526 c0 -2 7 -7 16 -10 8 -3 12 -2 9 4 -6 10 -25 14 -25 6z"/>
<path d="M10224 3418 l-29 -33 33 29 c30 28 37 36 29 36 -2 0 -16 -15 -33 -32z"/>
<path d="M10149 3353 l-24 -28 28 24 c25 23 32 31 24 31 -2 0 -14 -12 -28 -27z"/>
<path d="M8675 3320 c-3 -6 1 -7 9 -4 18 7 21 14 7 14 -6 0 -13 -4 -16 -10z"/>
<path d="M10070 3289 l-45 -41 42 32 c37 27 61 51 51 50 -2 0 -23 -19 -48 -41z"/>
<path d="M8610 3300 c-8 -5 -10 -10 -5 -10 6 0 17 5 25 10 8 5 11 10 5 10 -5
0 -17 -5 -25 -10z"/>
<path d="M8498 3263 c7 -3 16 -2 19 1 4 3 -2 6 -13 5 -11 0 -14 -3 -6 -6z"/>
<path d="M8428 3243 c7 -3 16 -2 19 1 4 3 -2 6 -13 5 -11 0 -14 -3 -6 -6z"/>
<path d="M9927 3181 c-48 -37 -93 -74 -100 -81 -8 -10 -6 -10 8 1 11 8 55 41
97 72 64 48 101 80 86 76 -2 0 -42 -31 -91 -68z"/>
<path d="M8348 3223 c7 -3 16 -2 19 1 4 3 -2 6 -13 5 -11 0 -14 -3 -6 -6z"/>
<path d="M8258 3203 c6 -2 18 -2 25 0 6 3 1 5 -13 5 -14 0 -19 -2 -12 -5z"/>
<path d="M6468 3183 c7 -3 16 -2 19 1 4 3 -2 6 -13 5 -11 0 -14 -3 -6 -6z"/>
<path d="M8135 3180 c-14 -7 -8 -8 20 -3 22 3 42 7 44 9 9 8 -45 2 -64 -6z"/>
<path d="M6568 3163 c7 -3 16 -2 19 1 4 3 -2 6 -13 5 -11 0 -14 -3 -6 -6z"/>
<path d="M8058 3163 c6 -2 18 -2 25 0 6 3 1 5 -13 5 -14 0 -19 -2 -12 -5z"/>
<path d="M8018 3153 c7 -3 16 -2 19 1 4 3 -2 6 -13 5 -11 0 -14 -3 -6 -6z"/>
<path d="M7933 3143 c9 -2 25 -2 35 0 9 3 1 5 -18 5 -19 0 -27 -2 -17 -5z"/>
<path d="M7878 3133 c6 -2 18 -2 25 0 6 3 1 5 -13 5 -14 0 -19 -2 -12 -5z"/>
<path d="M7768 3123 c12 -2 32 -2 45 0 12 2 2 4 -23 4 -25 0 -35 -2 -22 -4z"/>
<path d="M7698 3113 c6 -2 18 -2 25 0 6 3 1 5 -13 5 -14 0 -19 -2 -12 -5z"/>
<path d="M7498 3103 c23 -2 59 -2 80 0 20 2 1 4 -43 4 -44 0 -61 -2 -37 -4z"/>
<path d="M9697 3016 c-73 -50 -110 -80 -77 -61 34 19 160 106 160 110 0 7 1 8
-83 -49z"/>
</g>
</svg>
